<?xml version="1.0" encoding="UTF-8"?><svg id="a" xmlns="http://www.w3.org/2000/svg" viewBox="0 0 360.92 76.2"><path d="M229.41,28.13c-13.69,0-24.67,7.67-24.67,15.83,0,.49.1.68.29,1.07l10.5-2.03c2.68-.52,4.72-2.74,4.97-5.46.27-2.87,1.28-6.1,4.44-6.39,1.06-.1,2.23.58,3.01,1.75,1.75,2.52,1.75,7.38,1.75,14.08v3.69c-.39,0-.78.1-1.17.1-9.71,1.17-25.25,3.11-25.25,14.37,0,7.09,6.12,10.78,13.4,10.78,4.37,0,9.13-1.26,13.4-3.98,1.75,3.11,4.95,4.08,8.55,4.08,2.25,0,4.83-.36,7.09-1.05v-31.09c0-6.02-.58-8.45-2.23-10.68-3.88-4.56-9.03-5.05-14.08-5.05ZM229.7,69.79c-1.85.78-3.5,1.17-4.95,1.17-3.59,0-6.02-2.33-6.02-7.19,0-6.7,3.69-9.52,10.97-10.78v16.8Z" fill="currentColor"/><path d="M358.68,33.18c-3.88-4.56-9.03-5.05-14.08-5.05-13.69,0-24.67,7.67-24.67,15.83,0,.49.1.68.29,1.07l10.5-2.03c2.68-.52,4.72-2.74,4.97-5.46.27-2.87,1.28-6.1,4.44-6.39,1.06-.1,2.23.58,3.01,1.75,1.75,2.52,1.75,7.38,1.75,14.08v3.69c-.39,0-.78.1-1.17.1-9.71,1.17-25.25,3.11-25.25,14.37,0,7.09,6.12,10.78,13.4,10.78,4.37,0,9.13-1.26,13.4-3.98,1.75,3.11,4.95,4.08,8.55,4.08,2.25,0,4.83-.36,7.09-1.05v-31.09c0-6.02-.58-8.45-2.23-10.68ZM344.89,69.79c-1.84.78-3.5,1.17-4.95,1.17-3.59,0-6.02-2.33-6.02-7.19,0-6.7,3.69-9.52,10.97-10.78v16.8Z" fill="currentColor"/><path d="M99.21,69.21c-9.81,0-15.83-7.96-17.19-18.55l27.38-5.82c-.5-1.91-1.01-3.67-1.06-3.83-3.27-9.01-10.58-12.79-17.97-12.79-14.08,0-23.7,12.43-23.7,25.35,0,11.46,7.38,22.63,23.7,22.63,6.89,0,13.89-2.52,20.39-8.35l-.68-1.46c-3.98,1.94-7.67,2.82-10.88,2.82ZM81.73,46c0-9.91,2.62-14.28,5.54-14.28,1.65,0,3.41,1.37,4.84,3.89,2.65,4.67-.05,10.57-5.32,11.62l-5.06,1v-2.23Z" fill="currentColor"/><path d="M290.64,35.41l.54-1.36s-.01-.01-.02-.02l.57-1.51s-3.83-5.08-9.41-5.08-10.67,12.24-10.67,12.24l-.19-.1v-11.56l-.97-.58-19.15,6.15c1.81,2.93,3.71,5.83,3.71,10.63,0,.06-.02.29,0,.63v23.41c0,3.2-.87,4.56-3.2,5.24l-1.75.49v1.03h28.65v-1.03l-3.11-.68c-2.82-.58-4.18-1.55-4.18-4.47v-24.45c0-1.48.85-2.86,2.21-3.45,0,0,.01,0,.02,0,2.72-1.36,5.63-1.17,9.03.39l4.37,2.14.39-.1,3.15-7.96h0Z" fill="currentColor"/><path d="M310.69,68.57v-33.6s0-.07,0-.11c-.06.05-.11.1-.17.15l-8.61,2.09c-4.48,1.09-7.64,5.1-7.64,9.71v21.77c0,3.2-1.46,4.47-3.2,4.95l-1.75.49v1.03h27.09v-1.03l-1.94-.39c-1.75-.39-3.79-1.85-3.79-5.05Z" fill="currentColor"/><path d="M148.3,28.41c-1.35-.51-2.91-.96-3.99-.96-5.58,0-10.67,12.24-10.67,12.24l-.19-.1v-11.56l-.97-.58-19.15,6.15c1.81,2.93,3.71,5.83,3.71,10.63,0,.06-.02.29,0,.63v23.41c0,3.2-.87,4.56-3.2,5.24l-1.75.49v1.03h28.65v-1.03l-3.11-.68c-2.82-.58-4.18-1.55-4.18-4.47v-24.51c0-1.48.88-2.81,2.23-3.39,2.72-1.36,5.63-1.17,9.03.39l4.22,2.06c.65.31,1.4-.16,1.4-.87v-11.16c0-1.31-.81-2.48-2.03-2.94Z" fill="currentColor"/><path d="M185.29,28.52c-4.56,0-9.61,1.75-14.28,5.63v-15.54c0-6.22.58-9.81.87-11.85l-1.26-.78-21.75,7.09v1.07l2.91,2.23c1.85,1.46,2.82,3.59,2.82,6.12v38.56c0,7.51,5.65,13.88,13.12,14.64,2.08.21,4.15.31,6.21.31,16.9,0,27.19-8.25,27.19-25.25,0-6.12-1.07-11.17-3.2-14.86-2.62-4.76-7.28-7.38-12.62-7.38ZM176.16,72.71c-1.46,0-3.11-.68-4.08-2.72-.68-1.26-1.07-3.11-1.07-7.09v-26.51c1.65-.68,3.11-.97,4.37-.97,8.45,0,9.03,14.37,9.03,21.56,0,11.36-4.27,15.73-8.25,15.73Z" fill="currentColor"/><path d="M61.47,66.2V18.52c0-4.86,1.36-5.83,4.66-6.9l1.55-.49v-1.46h-30.44v1.63c3.65,1.38,6.26,4.9,6.26,9.04v2.66h0v6.99c0,.08,0,.17,0,.25v.09c0,3.67-2.05,6.86-5.07,8.5-1.37.79-2.93,1.26-4.59,1.26s-3.22-.46-4.59-1.26c-3.02-1.63-5.07-4.83-5.07-8.5v-.09c0-.08,0-.17,0-.25v-6.99h0v-2.66c0-4.13,2.59-7.65,6.24-9.03v-1.63H0v1.46l1.55.49c3.3,1.07,4.66,2.04,4.66,6.9v47.68c0,4.86-1.36,5.83-4.66,6.9l-1.55.49v1.46h30.43v-1.63c-3.65-1.38-6.26-4.9-6.26-9.04v-11.49c0-5.33,4.32-9.66,9.66-9.66h0c4.17,0,7.73,2.65,9.08,6.36.39,1.05.6,2.18.6,3.36v8.77h-.02v2.66c0,4.13-2.59,7.65-6.24,9.03v1.63h30.44v-1.46l-1.55-.49c-3.3-1.07-4.66-2.04-4.66-6.9Z" fill="currentColor"/><path d="M316.41.02c-6.37,1.83-15.22,6.35-19.59,11.06-4.51,4.86-5.42,13.66-.1,17.6.59.43,1.21.78,1.86,1.04-.41-6.92,1.47-13.92,6.42-18.72.58-.52,1.2-1.09,1.83-1.53,0,0,.97-.68.97-.68.03-.02.07-.04.11-.04.12,0,.21.1.21.21,0,.06-.02.11-.06.15h0c-6,5.83-7.63,13.34-7.11,21.2,4.67.52,9.91-2.4,12.48-6.63,3.3-5.43,3.6-16.58,3.57-23.21,0-.31-.29-.53-.59-.44Z" fill="currentColor"/></svg>